<?xml version="1.0" encoding="UTF-8" standalone="no"?>
<!-- Created with Inkscape (http://www.inkscape.org/) -->

<svg
   xmlns:dc="http://purl.org/dc/elements/1.1/"
   xmlns:cc="http://creativecommons.org/ns#"
   xmlns:rdf="http://www.w3.org/1999/02/22-rdf-syntax-ns#"
   xmlns:svg="http://www.w3.org/2000/svg"
   xmlns="http://www.w3.org/2000/svg"
   xmlns:sodipodi="http://sodipodi.sourceforge.net/DTD/sodipodi-0.dtd"
   xmlns:inkscape="http://www.inkscape.org/namespaces/inkscape"
   width="210mm"
   height="297mm"
   viewBox="0 0 210 297"
   version="1.1"
   id="svg8"
   inkscape:version="0.92.4 (5da689c313, 2019-01-14)"
   sodipodi:docname="CaveGameIcon.svg">
  <defs
     id="defs2" />
  <sodipodi:namedview
     id="base"
     pagecolor="#ffffff"
     bordercolor="#666666"
     borderopacity="1.0"
     inkscape:pageopacity="0.0"
     inkscape:pageshadow="2"
     inkscape:zoom="0.35"
     inkscape:cx="-64.285714"
     inkscape:cy="560"
     inkscape:document-units="mm"
     inkscape:current-layer="layer1"
     showgrid="false"
     inkscape:window-width="2560"
     inkscape:window-height="1377"
     inkscape:window-x="-8"
     inkscape:window-y="-8"
     inkscape:window-maximized="1" />
  <metadata
     id="metadata5">
    <rdf:RDF>
      <cc:Work
         rdf:about="">
        <dc:format>image/svg+xml</dc:format>
        <dc:type
           rdf:resource="http://purl.org/dc/dcmitype/StillImage" />
        <dc:title></dc:title>
      </cc:Work>
    </rdf:RDF>
  </metadata>
  <g
     inkscape:label="Layer 1"
     inkscape:groupmode="layer"
     id="layer1">
    <path
       style="fill:#000000;stroke-width:0.26458332"
       d="M 20.333334,148.5 V 63.833332 H 105 189.66667 V 148.5 233.16667 H 105 20.333334 Z m 62.31896,77.98594 c -0.0807,-0.47295 -0.51034,-3.87545 -0.9548,-7.56113 l -0.80812,-6.70123 -1.86043,-1.76543 c -1.02324,-0.971 -2.0755,-1.86769 -2.33837,-1.99266 -0.33636,-0.15991 -3.95388,0.80877 -12.21186,3.27005 -6.45366,1.92349 -11.80648,3.54047 -11.89517,3.59328 -0.0887,0.0528 -1.75305,-1.42885 -3.6986,-3.29258 l -3.53736,-3.3886 1.97367,-2.13331 1.97368,-2.13331 2.07358,1.89126 c 1.14047,1.04019 2.22834,1.99976 2.41747,2.13237 0.22785,0.15976 4.27805,-0.93393 12.00283,-3.24114 6.41242,-1.91524 11.87829,-3.48226 12.14637,-3.48226 0.26809,0 1.37547,0.89401 2.46085,1.98668 l 1.97342,1.98668 6.24469,-6.24062 6.24469,-6.24062 0.42619,4.0555 c 0.2344,2.23053 0.81616,7.89268 1.29279,12.58256 0.47664,4.68988 0.94028,8.44035 1.03033,8.33438 0.0901,-0.10598 0.54847,-6.08628 1.01872,-13.28956 0.47025,-7.20328 0.92377,-13.7341 1.00783,-14.51293 l 0.15284,-1.41606 1.664666,4.59106 c 0.91557,2.52508 1.67518,4.41246 1.68803,4.19418 0.0129,-0.21828 0.48567,-3.58865 1.05071,-7.48971 l 1.02735,-7.09284 2.19114,-2.69675 c 1.20513,-1.48321 3.85386,-4.78033 5.88607,-7.32695 2.0322,-2.54661 3.83704,-4.78701 4.01074,-4.97866 0.25547,-0.28188 0.75221,0.0112 2.59947,1.5336 l 2.28364,1.88206 -1.4603,1.77038 c -1.31655,1.59612 -1.41622,1.80261 -1.01259,2.09776 0.24624,0.18005 5.04272,2.67099 10.65885,5.53542 5.61613,2.86442 10.44927,5.35229 10.74032,5.52858 0.44813,0.27146 1.19571,0.0827 4.88201,-1.23263 2.39407,-0.85425 4.41813,-1.55311 4.49792,-1.55303 0.0798,8e-5 1.80365,1.29886 3.83081,2.88618 l 3.68575,2.88604 3.76064,-1.96858 3.76064,-1.96858 1.35101,2.5285 c 0.74305,1.39067 1.35101,2.57734 1.35101,2.63704 0,0.12074 -10.2791,5.5211 -10.74588,5.6456 -0.16215,0.0432 -2.03871,-1.30016 -4.17013,-2.98535 l -3.87529,-3.06397 -4.11535,1.45909 -4.11536,1.45908 -1.60717,-0.81129 c -0.93354,-0.47125 -1.54651,-0.66327 -1.46245,-0.45812 0.0796,0.19424 2.90734,6.54442 6.28389,14.1115 3.37655,7.56709 6.19749,13.95928 6.26876,14.20489 0.0714,0.24625 -0.62406,1.84675 -1.55062,3.56821 -0.92411,1.71693 -1.71988,3.21262 -1.76839,3.32377 -0.0485,0.11115 8.13704,0.20209 18.19011,0.20209 h 18.27829 v -4.78033 -4.78033 l -0.57853,0.18362 c -0.31819,0.10099 -2.67418,1.04197 -5.23553,2.09106 l -4.657,1.90743 -1.09163,-2.74067 -1.09163,-2.74068 0.83706,-0.34314 c 0.46038,-0.18872 3.30499,-1.34689 6.32135,-2.57369 l 5.48429,-2.23056 0.003,-38.76146 0.003,-38.76145 -3.86168,-4.36563 c -2.12393,-2.40109 -3.96951,-4.64531 -4.10128,-4.98715 -0.13178,-0.34184 -1.7476,-5.34247 -3.59072,-11.1125 -1.84312,-5.77003 -3.38493,-10.53611 -3.42624,-10.59128 -0.0413,-0.0552 -2.53846,2.29631 -5.54924,5.22552 -3.60107,3.50348 -5.6647,5.32583 -6.03098,5.32583 -0.56747,0 -32.94692,-4.10243 -34.45204,-4.36503 -0.64338,-0.11225 -1.83606,-1.19869 -5.39921,-4.91824 l -4.5734,-4.774178 1.69504,-1.721463 c 2.68148,-2.72328 2.14589,-2.863572 6.5681,1.720474 l 3.85819,3.999397 15.34584,1.96848 15.34583,1.96849 5.15937,-5.0749 5.15938,-5.07491 -8.73125,-10.236144 -8.73125,-10.236143 -6.70537,-2.30528 -6.70537,-2.30528 -7.9047,7.901406 -7.9047,7.901406 -16.6895,-1.146177 C 93.435804,85.98193 85.874014,85.517667 85.811044,85.580633 c -0.063,0.06297 -3.14311,6.060034 -6.84477,13.32682 -3.93887,7.732467 -6.60662,13.256577 -6.43213,13.318997 0.16398,0.0587 5.23675,1.93389 11.27283,4.16717 6.03607,2.2333 11.0623,4.06055 11.16939,4.06055 0.1071,0 2.92675,-1.46755 6.265906,-3.2612 l 6.07118,-3.26118 1.40352,2.65042 c 0.77194,1.45773 1.29337,2.68883 1.15874,2.73578 -0.13464,0.0469 -3.43427,1.79186 -7.33253,3.87757 l -7.087746,3.7922 -13.14719,-4.84643 c -11.08826,-4.08746 -13.22109,-4.79588 -13.61909,-4.52358 -1.4997,1.02607 -22.66432,17.82139 -22.67619,17.99484 -0.008,0.11521 2.5455,4.50228 5.6742,9.74905 3.1287,5.24676 5.68854,9.59976 5.68854,9.67333 0,0.0736 0.95439,1.71988 2.12087,3.65846 1.74915,2.90696 2.24764,3.54892 2.84427,3.66286 0.39787,0.076 2.59018,0.27969 4.8718,0.45267 l 4.1484,0.31452 5.90577,-3.78403 c 3.24817,-2.08122 7.34242,-4.70096 9.09832,-5.82164 l 3.19256,-2.0376 1.5341,2.49244 c 0.84375,1.37084 1.4907,2.53347 1.43765,2.58361 -0.053,0.0501 -4.50176,2.91365 -9.88603,6.36334 l -9.78958,6.27219 -7.27604,-0.58348 c -4.00183,-0.32091 -7.3457,-0.66055 -7.43082,-0.75474 -0.0851,-0.0942 -1.44286,-2.3144 -3.01716,-4.93378 -1.57431,-2.61937 -2.88651,-4.79496 -2.91599,-4.83465 -0.0295,-0.0397 -4.29231,2.21009 -9.47296,4.99948 l -9.41937,5.07164 0.62486,1.08593 c 3.22892,5.61148 10.43206,19.31432 10.28228,19.5604 -0.1041,0.17102 -2.9969,3.70423 -6.42845,7.85158 -3.43155,4.14734 -7.45556,9.04457 -8.94224,10.88273 l -2.70307,3.34211 v 8.23341 8.23341 h 28.32241 28.3224 z m 65.374956,-81.70396 -5.19105,-6.29753 -5.21399,3.15569 c -2.86769,1.73563 -5.35556,3.15569 -5.52861,3.15569 -0.35397,0 -3.08752,-4.4172 -2.9636,-4.78896 0.0438,-0.13149 3.44121,-2.25629 7.54972,-4.72177 l 7.47002,-4.4827 5.60932,6.79828 c 3.08513,3.73905 5.61714,6.81799 5.62669,6.84207 0.0215,0.0542 9.51412,-2.07813 9.61583,-2.16002 0.0404,-0.0325 -0.23619,-1.03935 -0.61465,-2.23737 -0.37845,-1.19802 -0.64963,-2.20986 -0.60262,-2.24854 0.31406,-0.25837 5.40897,-1.64479 5.53818,-1.50704 0.27568,0.2939 3.18362,10.14439 3.03776,10.29025 -0.0759,0.0759 -4.21995,1.07192 -9.20902,2.21339 -4.98906,1.14147 -9.26495,2.12281 -9.50197,2.18075 -0.29919,0.0731 -2.01807,-1.82006 -5.62201,-6.19219 z"
       id="path4529"
       inkscape:connector-curvature="0" />
  </g>
</svg>
